# xmcd
#
# Track frame offsets:
#	150
#	14461
#	33126
#	51111
#	66025
#	82545
#	99479
#	115211
#	137555
#
# Disc length: 2092 seconds
#
# Revision: 1
# Processed by: cddbd v1.5.2PL0 Copyright (c) Steve Scherf et al.
# Submitted via: audiograbber 1.83.01
#
DISCID=63082a09
DTITLE=BACK HOME - POCKET FULL OF CROSSES
DYEAR=2010
DGENRE=SOUTHERN GOSPEL
TTITLE0=BACK HOME
TTITLE1=PEACE
TTITLE2=ON THE OTHER SIDE OF TIME
TTITLE3=POCKET FULL OF CROSSES
TTITLE4=MAN IN CHAINS
TTITLE5=THE HOUR I FIRST BELIEVED
TTITLE6=HE REMEMBERED ME
TTITLE7=BACK TO GOD
TTITLE8=I'M STILL HERE
EXTD=
EXTT0=
EXTT1=
EXTT2=
EXTT3=
EXTT4=
EXTT5=
EXTT6=
EXTT7=
EXTT8=
PLAYORDER=
